<svg version="1.2" xmlns="http://www.w3.org/2000/svg" viewBox="0 0 900 256" width="510" height="145">
	<title>New Project</title>
	<style>
		.s0 { fill: #ffffff } 
	</style>
	<path id="PIZZARIO" class="s0" aria-label="PIZZARIO"  d="m58 249h-47.3v-240.6h63.5q20 0 31.6 8.9 11.8 8.8 16.8 25.3 5.1 16.4 5.1 39.1 0 21.8-4.2 38.1-4.3 16.1-15.2 25-10.8 8.9-30.8 8.9h-19.5zm0-196.7v58.2h2.7q13.4 0 16.4-7.5 3-7.5 3-22.2 0-13.6-3-21-2.9-7.5-13.8-7.5zm129 196.7h-46.5v-240.6h46.5zm116.9 0h-103.5v-43.8l55.1-152.5h-49.8v-44.3h100.5v42.1l-56 154.2h53.7zm114 0h-103.5v-43.8l55.1-152.5h-49.8v-44.3h100.5v42.1l-56 154.2h53.7zm58 0h-46.8l23.3-240.6h81.6l22.8 240.6h-45.5l-3.4-38.8h-29zm15.6-199.6l-9.2 122.3h21.9l-10.5-122.3zm128.9 199.6h-48.7v-240.7h73.8q18.5 0 27.9 8.5 9.4 8.4 12.6 23.5 3.3 15.1 3.3 35.4 0 19.7-5.1 31.5-4.9 11.7-18.7 16.3 11.3 2.3 15.8 11.3 4.7 8.9 4.7 23.1v91.1h-47.5v-94.2q0-10.6-4.3-13-4.3-2.6-13.8-2.6zm0.2-196.1v44.6h11.7q9.9 0 9.9-21.7 0-14.1-2.1-18.5-2.2-4.4-8.3-4.4zm129.4 196.1h-46.5v-240.7h46.5zm76.1 2.2q-28.8 0-44.1-17.3-15.2-17.5-15.2-50.5v-114.3q0-30.9 15-46.9 15.2-16 44.3-16 29.1 0 44.2 16 15.2 16 15.2 46.9v114.3q0 33-15.4 50.5-15.1 17.3-44 17.3zm0.4-44.3q11 0 11-21.2v-117.4q0-17.8-10.7-17.8-12 0-12 18.2v117.3q0 11.2 2.7 16.2 2.7 4.7 9 4.7z"/>
</svg>